# xmcd
#
# Track frame offsets: 
#        150
#        11126
#        21949
#        33404
#        43746
#        55383
#        66368
#        79979
#        93103
#        105768
#        118105
#        127903
#        138915
#        149614
#        160336
#        170050
#        184434
#        196073
#        205235
#        216456
#
# Disc length: 3051 seconds
#
# Revision: 0
# Processed by: cddbd v1.5.2PL0 Copyright (c) Steve Scherf et al.
# Submitted via: ExactAudioCopy v1.1
#
DISCID=290be914
DTITLE=Ferlin Husky - CD1_The Essential Recordings
DYEAR=2016
DGENRE=Country
TTITLE0=Gone
TTITLE1=A Fallen Star
TTITLE2=A Dear John Letter (With Jean Shepard)
TTITLE3=Tennessee Central (Number 9)
TTITLE4=I Feel Better All Over (More Than Anywhere Else)
TTITLE5=Forgive Me, John (With Jean Shepard)
TTITLE6=Little Tom
TTITLE7=Cuzz Yore So Sweet
TTITLE8=Hang Your Head In Shame
TTITLE9=I'll Baby Sit With You
TTITLE10=I Can't Go On This Way
TTITLE11=Honky Tonkin' Party Girl
TTITLE12=Prize Possession
TTITLE13=Stormy Weather
TTITLE14=I Will
TTITLE15=Country Music Is Here To Stay
TTITLE16=I've Got The World On A String
TTITLE17=Love (Your Spell Is Everywhere)
TTITLE18=My Foolish Heart
TTITLE19=A Worried Mind
EXTD=
EXTT0=
EXTT1=
EXTT2=
EXTT3=
EXTT4=
EXTT5=
EXTT6=
EXTT7=
EXTT8=
EXTT9=
EXTT10=
EXTT11=
EXTT12=
EXTT13=
EXTT14=
EXTT15=
EXTT16=
EXTT17=
EXTT18=
EXTT19=
PLAYORDER=
